<svg width="24" height="24" viewBox="0 0 24 24" fill="none" xmlns="http://www.w3.org/2000/svg">
<path d="M6.23206 7.29283C6.23206 6.70698 6.70698 6.23206 7.29283 6.23206H10.4751C11.061 6.23206 11.5359 6.70698 11.5359 7.29283V10.4751C11.5359 11.061 11.061 11.5359 10.4751 11.5359H7.29283C6.70698 11.5359 6.23206 11.061 6.23206 10.4751V7.29283Z" fill="#333333"/>
<path d="M0 7.29283C0 6.70698 0.474924 6.23206 1.06077 6.23206H4.24309C4.82895 6.23206 5.30387 6.70698 5.30387 7.29283V10.4751C5.30387 11.061 4.82895 11.5359 4.24309 11.5359H1.06077C0.474924 11.5359 0 11.061 0 10.4751V7.29283Z" fill="#333333"/>
<path d="M12.4641 13.5249C12.4641 12.939 12.939 12.4641 13.5249 12.4641H16.7072C17.2931 12.4641 17.768 12.939 17.768 13.5249V16.7072C17.768 17.2931 17.2931 17.768 16.7072 17.768H13.5249C12.939 17.768 12.4641 17.2931 12.4641 16.7072V13.5249Z" fill="#333333"/>
<path d="M6.23206 13.5249C6.23206 12.939 6.70698 12.4641 7.29283 12.4641H10.4751C11.061 12.4641 11.5359 12.939 11.5359 13.5249V16.7072C11.5359 17.2931 11.061 17.768 10.4751 17.768H7.29283C6.70698 17.768 6.23206 17.2931 6.23206 16.7072V13.5249Z" fill="#333333"/>
<path d="M6.23206 19.7569C6.23206 19.171 6.70698 18.6961 7.29283 18.6961H10.4751C11.061 18.6961 11.5359 19.171 11.5359 19.7569V22.9392C11.5359 23.5251 11.061 24 10.4751 24H7.29283C6.70698 24 6.23206 23.5251 6.23206 22.9392V19.7569Z" fill="#333333"/>
<path d="M18.6962 13.5249C18.6962 12.939 19.1711 12.4641 19.7569 12.4641H22.9393C23.5251 12.4641 24 12.939 24 13.5249V16.7072C24 17.2931 23.5251 17.768 22.9393 17.768H19.7569C19.1711 17.768 18.6962 17.2931 18.6962 16.7072V13.5249Z" fill="#333333"/>
<path d="M12.4641 1.06077C12.4641 0.474924 12.939 0 13.5249 0H16.7072C17.2931 0 17.768 0.474924 17.768 1.06077V4.24309C17.768 4.82895 17.2931 5.30387 16.7072 5.30387H13.5249C12.939 5.30387 12.4641 4.82895 12.4641 4.24309V1.06077Z" fill="#333333"/>
<path d="M12.4641 7.29283C12.4641 6.70698 12.939 6.23206 13.5249 6.23206H16.7072C17.2931 6.23206 17.768 6.70698 17.768 7.29283V10.4751C17.768 11.061 17.2931 11.5359 16.7072 11.5359H13.5249C12.939 11.5359 12.4641 11.061 12.4641 10.4751V7.29283Z" fill="#333333"/>
</svg>
